<?xml version="1.0" encoding="UTF-8"?> <svg xmlns="http://www.w3.org/2000/svg" viewBox="52.879 25.681 352.3 129.6"><rect x="54.579" y="27.481" class="st0" width="163.5" height="67.3" style="fill: rgb(255, 255, 255);"></rect><rect x="219.479" y="27.481" class="st0" width="184" height="126.1" style="fill: rgb(255, 255, 255);"></rect><g transform="matrix(1, 0, 0, 1, -191.320804, -208.419345)"><path d="M266.9,254c0-0.3,0.2-0.5,0.5-0.5h15.1c0.3,0,0.5,0.2,0.5,0.5v5.9c0,0.3-0.2,0.5-0.5,0.5h-7.7c-0.2,0-0.3,0.1-0.3,0.3v5.4 c0,0.2,0.1,0.3,0.3,0.3h6.6c0.3,0,0.5,0.2,0.5,0.5v5.9c0,0.3-0.2,0.5-0.5,0.5h-6.6c-0.2,0-0.3,0.1-0.3,0.3v5.7 c0,0.2,0.1,0.3,0.3,0.3h7.7c0.3,0,0.5,0.2,0.5,0.5v5.9c0,0.3-0.2,0.5-0.5,0.5h-15.1c-0.3,0-0.5-0.2-0.5-0.5V254z"></path><path d="M285.5,254c0-0.3,0.2-0.5,0.5-0.5h6.3c0.4,0,0.6,0.2,0.7,0.5l4.4,15.9h0.2l4.3-15.9c0.1-0.3,0.3-0.5,0.7-0.5h6.3 c0.3,0,0.5,0.2,0.5,0.5v31.8c0,0.3-0.2,0.5-0.5,0.5h-5.7c-0.3,0-0.5-0.2-0.5-0.5v-16.9h-0.2l-2.9,11.1c-0.1,0.3-0.3,0.5-0.6,0.5 h-3.2c-0.3,0-0.5-0.1-0.6-0.5l-2.9-11.1h-0.2v16.9c0,0.3-0.2,0.5-0.5,0.5h-5.7c-0.3,0-0.5-0.2-0.5-0.5L285.5,254L285.5,254z"></path><path d="M312.3,254c0-0.3,0.2-0.5,0.5-0.5h15.1c0.3,0,0.5,0.2,0.5,0.5v5.9c0,0.3-0.2,0.5-0.5,0.5h-7.7c-0.2,0-0.3,0.1-0.3,0.3v5.4 c0,0.2,0.1,0.3,0.3,0.3h6.6c0.3,0,0.5,0.2,0.5,0.5v5.9c0,0.3-0.2,0.5-0.5,0.5h-6.6c-0.2,0-0.3,0.1-0.3,0.3v5.7 c0,0.2,0.1,0.3,0.3,0.3h7.7c0.3,0,0.5,0.2,0.5,0.5v5.9c0,0.3-0.2,0.5-0.5,0.5h-15.1c-0.3,0-0.5-0.2-0.5-0.5V254z"></path><path d="M343.7,286.3c-0.3,0-0.5-0.1-0.6-0.4l-3.3-11.8h-1.1c-0.2,0-0.3,0.1-0.3,0.3v11.5c0,0.3-0.2,0.5-0.5,0.5h-6.6 c-0.3,0-0.5-0.2-0.5-0.5V254c0-0.3,0.2-0.5,0.5-0.5h9.1c5.8,0,9.7,3,9.7,10.4c0,4-1.3,6.7-3.4,8.3l4.2,13.7c0.1,0.2,0,0.5-0.2,0.5 L343.7,286.3L343.7,286.3z M342.6,263.9c0-3-0.9-3.9-2.8-3.9h-1.1c-0.2,0-0.3,0.1-0.3,0.3v7.2c0,0.2,0.1,0.3,0.3,0.3h1.1 C341.7,267.7,342.6,266.8,342.6,263.9z"></path><path d="M352.4,269.9c0-7.8,0.2-9.5,0.7-11c1.3-4,4.1-5.9,8.8-5.9c5.9,0,9,3.3,9.3,8.8c0,0.3-0.1,0.5-0.4,0.6l-6.4,1.1 c-0.3,0-0.5-0.1-0.5-0.4c0-2.3-0.7-3.1-2-3.1c-0.8,0-1.3,0.3-1.6,1.2c-0.2,0.7-0.2,1.2-0.2,8.9s0,8.2,0.2,8.9 c0.3,0.8,0.8,1.2,1.6,1.2c1.3,0,1.9-0.9,2-3.1c0-0.3,0.2-0.5,0.5-0.4l6.4,1.1c0.3,0,0.4,0.2,0.4,0.6c-0.3,5.5-3.4,8.8-9.3,8.8 c-4.6,0-7.5-2-8.8-5.9C352.6,279.3,352.4,277.7,352.4,269.9z"></path><path d="M373.3,254c0-0.3,0.2-0.5,0.5-0.5h15.1c0.3,0,0.5,0.2,0.5,0.5v5.9c0,0.3-0.2,0.5-0.5,0.5h-7.7c-0.2,0-0.3,0.1-0.3,0.3v5.4 c0,0.2,0.1,0.3,0.3,0.3h6.6c0.3,0,0.5,0.2,0.5,0.5v5.9c0,0.3-0.2,0.5-0.5,0.5h-6.6c-0.2,0-0.3,0.1-0.3,0.3v5.7 c0,0.2,0.1,0.3,0.3,0.3h7.7c0.3,0,0.5,0.2,0.5,0.5v5.9c0,0.3-0.2,0.5-0.5,0.5h-15.1c-0.3,0-0.5-0.2-0.5-0.5V254z"></path></g><g transform="matrix(1, 0, 0, 1, -191.320804, -208.419345)"><path d="M441.6,276.2h-0.3l-11.3,8c-0.7,0.5-1.5,0.3-1.5-1V265c0-0.8,0.3-1.4,1.1-2l11.8-8.9c0.7-0.6,1.2-0.8,2.1-0.8h16.9 c0.8,0,1.3,0.6,1.3,1.4v90c0,0.8-0.5,1.4-1.3,1.4H443c-0.8,0-1.3-0.5-1.3-1.4L441.6,276.2L441.6,276.2z"></path><path d="M470.3,299.6c0-23.9,0.7-28.5,1.9-32.3c3.2-10,11.1-15.4,23.1-15.4s19.9,5.5,23.1,15.4c1.2,3.8,1.9,8.5,1.9,32.3 c0,23.9-0.7,28.5-1.9,32.3c-3.2,10-11.1,15.4-23.1,15.4c-12,0-19.9-5.5-23.1-15.4C471,328.1,470.3,323.5,470.3,299.6z M495.3,329.9 c2.1,0,3.5-1.1,4-2.9c0.4-1.1,0.5-2.6,0.5-27.4c0-24.8-0.1-26.3-0.5-27.4c-0.5-1.8-1.9-2.9-4-2.9s-3.5,1.1-4,2.9 c-0.4,1.1-0.5,2.6-0.5,27.4c0,24.8,0.1,26.3,0.5,27.4C491.8,328.8,493.1,329.9,495.3,329.9z"></path><path d="M527.6,299.6c0-23.9,0.7-28.5,1.9-32.3c3.2-10,11.1-15.4,23.1-15.4c12,0,19.9,5.5,23.1,15.4c1.2,3.8,1.9,8.5,1.9,32.3 c0,23.9-0.7,28.5-1.9,32.3c-3.2,10-11.1,15.4-23.1,15.4c-12,0-19.9-5.5-23.1-15.4C528.3,328.1,527.6,323.5,527.6,299.6z M552.6,329.9c2.2,0,3.5-1.1,4-2.9c0.4-1.1,0.5-2.6,0.5-27.4c0-24.8-0.1-26.3-0.5-27.4c-0.5-1.8-1.9-2.9-4-2.9s-3.5,1.1-4,2.9 c-0.4,1.1-0.5,2.6-0.5,27.4c0,24.8,0.1,26.3,0.5,27.4C549.1,328.8,550.5,329.9,552.6,329.9z"></path></g><path d="M 405.179 155.281 L 218.079 155.281 L 218.079 25.681 L 405.179 25.681 L 405.179 155.281 Z M 219.779 153.581 L 403.479 153.581 L 403.479 27.481 L 219.779 27.481 L 219.779 153.581 Z"></path><path d="M 219.779 96.481 L 52.879 96.481 L 52.879 25.681 L 219.779 25.681 L 219.779 96.481 Z M 54.579 94.781 L 218.079 94.781 L 218.079 27.481 L 54.579 27.481 L 54.579 94.781 Z"></path><g id="XMLID_1_" transform="matrix(1, 0, 0, 1, -191.320804, -208.419345)"><g><rect x="305.9" y="304.9" class="st0" width="103.5" height="42.5" style="fill: rgb(255, 255, 255);"></rect><path d="M409.4,347.4v-42.5H305.9v42.5H409.4z M411.1,303.2v46H304.2v-46H411.1z"></path></g><g></g></g><g transform="matrix(1, 0, 0, 1, -191.320804, -208.419345)"><g><g><path d="M317.2,314.7c0-0.1,0.1-0.1,0.1-0.1h1.6c1.7,0,2.4,0.7,2.4,2.6c0,1.4-0.4,2-1.2,2.3v0c0.8,0.3,1.3,0.9,1.3,2.5 c0,2.1-0.8,2.9-2.6,2.9h-1.5c-0.1,0-0.1-0.1-0.1-0.1V314.7z M319,319.2c1.1,0,1.6-0.5,1.6-2c0-1.5-0.4-2-1.6-2h-0.9 c-0.1,0-0.1,0-0.1,0.1v3.7c0,0.1,0,0.1,0.1,0.1L319,319.2L319,319.2z M318,324.2h0.8c1.3,0,1.8-0.5,1.8-2.1 c0-1.6-0.6-2.1-1.7-2.1H318c-0.1,0-0.1,0-0.1,0.1L318,324.2C318,324.2,318,324.2,318,324.2z"></path><path d="M322.9,314.7c0-0.1,0.1-0.1,0.1-0.1h3.5c0.1,0,0.1,0.1,0.1,0.1v0.4c0,0.1-0.1,0.1-0.1,0.1h-2.8c-0.1,0-0.1,0-0.1,0.1v3.8 c0,0.1,0,0.1,0.1,0.1h2.4c0.1,0,0.1,0.1,0.1,0.1v0.4c0,0.1-0.1,0.1-0.1,0.1h-2.4c-0.1,0-0.1,0-0.1,0.1v4c0,0.1,0,0.1,0.1,0.1h2.8 c0.1,0,0.1,0.1,0.1,0.1v0.4c0,0.1-0.1,0.1-0.1,0.1h-3.5c-0.1,0-0.1-0.1-0.1-0.1V314.7z"></path><path d="M329.9,325.1c-1.4,0-2.1-0.9-2.2-2.6c0-0.1,0-0.1,0.1-0.2l0.5-0.1c0.1,0,0.2,0,0.2,0.1c0.1,1.5,0.6,2,1.5,2 c0.9,0,1.4-0.4,1.4-2.2c0-1.3-0.3-1.8-1.1-2.1l-0.6-0.2c-1.4-0.5-1.7-1.2-1.7-2.8c0-1.8,0.7-2.6,2.1-2.6c1.4,0,2,0.8,2.1,2.4 c0,0.1,0,0.1-0.1,0.2l-0.4,0.1c-0.1,0-0.2,0-0.2-0.1c0-1.2-0.5-1.8-1.4-1.8c-0.9,0-1.3,0.5-1.3,1.8c0,1.2,0.3,1.7,1.1,2l0.6,0.2 c1.3,0.5,1.7,1.2,1.7,2.9C332.1,324.3,331.4,325.1,329.9,325.1z"></path><path d="M334.9,325c-0.1,0-0.1-0.1-0.1-0.1v-9.4c0-0.1,0-0.1-0.1-0.1h-1.8c-0.1,0-0.1-0.1-0.1-0.1v-0.4c0-0.1,0.1-0.1,0.1-0.1 h4.6c0.1,0,0.1,0.1,0.1,0.1v0.4c0,0.1-0.1,0.1-0.1,0.1h-1.8c-0.1,0-0.1,0-0.1,0.1v9.4c0,0.1-0.1,0.1-0.1,0.1H334.9z"></path><path d="M338.7,314.7c0-0.1,0.1-0.1,0.1-0.1h3.5c0.1,0,0.1,0.1,0.1,0.1v0.4c0,0.1-0.1,0.1-0.1,0.1h-2.8c-0.1,0-0.1,0-0.1,0.1v3.8 c0,0.1,0,0.1,0.1,0.1h2.4c0.1,0,0.1,0.1,0.1,0.1v0.4c0,0.1-0.1,0.1-0.1,0.1h-2.4c-0.1,0-0.1,0-0.1,0.1v4c0,0.1,0,0.1,0.1,0.1h2.8 c0.1,0,0.1,0.1,0.1,0.1v0.4c0,0.1-0.1,0.1-0.1,0.1h-3.5c-0.1,0-0.1-0.1-0.1-0.1V314.7z"></path><path d="M346.5,314.7c0-0.1,0.1-0.1,0.1-0.1h3.5c0.1,0,0.1,0.1,0.1,0.1v0.4c0,0.1-0.1,0.1-0.1,0.1h-2.8c-0.1,0-0.1,0-0.1,0.1v3.8 c0,0.1,0,0.1,0.1,0.1h2.4c0.1,0,0.1,0.1,0.1,0.1v0.4c0,0.1-0.1,0.1-0.1,0.1h-2.4c-0.1,0-0.1,0-0.1,0.1v4c0,0.1,0,0.1,0.1,0.1h2.8 c0.1,0,0.1,0.1,0.1,0.1v0.4c0,0.1-0.1,0.1-0.1,0.1h-3.5c-0.1,0-0.1-0.1-0.1-0.1V314.7z"></path><path d="M351.2,321.1v-0.4c0-0.1,0.1-0.1,0.1-0.1h3c0.1,0,0.1,0.1,0.1,0.1v0.4c0,0.1-0.1,0.1-0.1,0.1h-3 C351.3,321.3,351.2,321.2,351.2,321.1z"></path><path d="M355.9,314.7c0-0.1,0.1-0.1,0.1-0.1h1.6c1.7,0,2.4,0.7,2.4,2.6c0,1.4-0.4,2-1.2,2.3v0c0.8,0.3,1.3,0.9,1.3,2.5 c0,2.1-0.8,2.9-2.6,2.9h-1.5c-0.1,0-0.1-0.1-0.1-0.1V314.7z M357.7,319.2c1.1,0,1.6-0.5,1.6-2c0-1.5-0.4-2-1.6-2h-0.9 c-0.1,0-0.1,0-0.1,0.1v3.7c0,0.1,0,0.1,0.1,0.1L357.7,319.2L357.7,319.2z M356.8,324.2h0.8c1.3,0,1.8-0.5,1.8-2.1 c0-1.6-0.6-2.1-1.7-2.1h-0.9c-0.1,0-0.1,0-0.1,0.1L356.8,324.2C356.7,324.2,356.8,324.2,356.8,324.2z"></path><path d="M361.7,322.5v-7.8c0-0.1,0.1-0.1,0.1-0.1h0.5c0.1,0,0.1,0.1,0.1,0.1v7.9c0,1.2,0.6,1.8,1.4,1.8s1.5-0.5,1.5-1.8v-7.9 c0-0.1,0.1-0.1,0.1-0.1h0.5c0.1,0,0.1,0.1,0.1,0.1v7.8c0,1.7-0.9,2.6-2.2,2.6C362.6,325.1,361.7,324.3,361.7,322.5z"></path><path d="M369.8,325.1c-1.4,0-2.1-0.9-2.2-2.6c0-0.1,0-0.1,0.1-0.2l0.5-0.1c0.1,0,0.2,0,0.2,0.1c0.1,1.5,0.6,2,1.5,2 c0.9,0,1.4-0.4,1.4-2.2c0-1.3-0.3-1.8-1.1-2.1l-0.6-0.2c-1.4-0.5-1.7-1.2-1.7-2.8c0-1.8,0.7-2.6,2.1-2.6c1.4,0,2,0.8,2.1,2.4 c0,0.1,0,0.1-0.1,0.2l-0.4,0.1c-0.1,0-0.2,0-0.2-0.1c0-1.2-0.5-1.8-1.4-1.8c-0.9,0-1.3,0.5-1.3,1.8c0,1.2,0.3,1.7,1.1,2l0.6,0.2 c1.3,0.5,1.7,1.2,1.7,2.9C372,324.3,371.4,325.1,369.8,325.1z"></path><path d="M373.5,314.7c0-0.1,0.1-0.1,0.1-0.1h0.5c0.1,0,0.1,0.1,0.1,0.1v10.1c0,0.1-0.1,0.1-0.1,0.1h-0.5c-0.1,0-0.1-0.1-0.1-0.1 V314.7z"></path><path d="M376.2,314.7c0-0.1,0.1-0.1,0.1-0.1h0.6c0.1,0,0.2,0,0.2,0.1l2.8,8.5h0v-8.5c0-0.1,0.1-0.1,0.1-0.1h0.4 c0.1,0,0.1,0.1,0.1,0.1v10.1c0,0.1-0.1,0.1-0.1,0.1h-0.6c-0.1,0-0.2,0-0.2-0.1l-2.9-8.5h0v8.5c0,0.1-0.1,0.1-0.1,0.1h-0.4 c-0.1,0-0.1-0.1-0.1-0.1L376.2,314.7L376.2,314.7z"></path><path d="M382.7,314.7c0-0.1,0.1-0.1,0.1-0.1h3.5c0.1,0,0.1,0.1,0.1,0.1v0.4c0,0.1-0.1,0.1-0.1,0.1h-2.8c-0.1,0-0.1,0-0.1,0.1v3.8 c0,0.1,0,0.1,0.1,0.1h2.4c0.1,0,0.1,0.1,0.1,0.1v0.4c0,0.1-0.1,0.1-0.1,0.1h-2.4c-0.1,0-0.1,0-0.1,0.1v4c0,0.1,0,0.1,0.1,0.1h2.8 c0.1,0,0.1,0.1,0.1,0.1v0.4c0,0.1-0.1,0.1-0.1,0.1h-3.5c-0.1,0-0.1-0.1-0.1-0.1V314.7z"></path><path d="M389.7,325.1c-1.4,0-2.1-0.9-2.2-2.6c0-0.1,0-0.1,0.1-0.2l0.5-0.1c0.1,0,0.2,0,0.2,0.1c0.1,1.5,0.6,2,1.5,2 c0.9,0,1.4-0.4,1.4-2.2c0-1.3-0.3-1.8-1.1-2.1l-0.6-0.2c-1.4-0.5-1.7-1.2-1.7-2.8c0-1.8,0.7-2.6,2.1-2.6c1.4,0,2,0.8,2.1,2.4 c0,0.1,0,0.1-0.1,0.2l-0.4,0.1c-0.1,0-0.2,0-0.2-0.1c0-1.2-0.5-1.8-1.4-1.8c-0.9,0-1.3,0.5-1.3,1.8c0,1.2,0.3,1.7,1.1,2l0.6,0.2 c1.3,0.5,1.7,1.2,1.7,2.9C391.9,324.3,391.2,325.1,389.7,325.1z"></path><path d="M395.2,325.1c-1.4,0-2.1-0.9-2.2-2.6c0-0.1,0-0.1,0.1-0.2l0.5-0.1c0.1,0,0.2,0,0.2,0.1c0.1,1.5,0.6,2,1.5,2 c0.9,0,1.4-0.4,1.4-2.2c0-1.3-0.3-1.8-1.1-2.1l-0.6-0.2c-1.4-0.5-1.7-1.2-1.7-2.8c0-1.8,0.7-2.6,2.1-2.6c1.4,0,2,0.8,2.1,2.4 c0,0.1,0,0.1-0.1,0.2l-0.4,0.1c-0.1,0-0.2,0-0.2-0.1c0-1.2-0.5-1.8-1.4-1.8c-0.9,0-1.3,0.5-1.3,1.8c0,1.2,0.3,1.7,1.1,2l0.6,0.2 c1.3,0.5,1.7,1.2,1.7,2.9C397.4,324.3,396.8,325.1,395.2,325.1z"></path><path d="M317.2,328.5c0-0.1,0.1-0.1,0.1-0.1h1.6c1.7,0,2.4,0.7,2.4,2.6c0,1.4-0.4,2-1.2,2.3v0c0.8,0.3,1.3,0.9,1.3,2.5 c0,2.1-0.8,2.9-2.6,2.9h-1.5c-0.1,0-0.1-0.1-0.1-0.1V328.5z M319,333c1.1,0,1.6-0.5,1.6-2c0-1.5-0.4-2-1.6-2h-0.9 c-0.1,0-0.1,0-0.1,0.1v3.7c0,0.1,0,0.1,0.1,0.1L319,333L319,333z M318,338h0.8c1.3,0,1.8-0.5,1.8-2.1c0-1.6-0.6-2.1-1.7-2.1H318 c-0.1,0-0.1,0-0.1,0.1L318,338C318,338,318,338,318,338z"></path><path d="M322.9,328.5c0-0.1,0.1-0.1,0.1-0.1h3.5c0.1,0,0.1,0.1,0.1,0.1v0.4c0,0.1-0.1,0.1-0.1,0.1h-2.8c-0.1,0-0.1,0-0.1,0.1v3.8 c0,0.1,0,0.1,0.1,0.1h2.4c0.1,0,0.1,0.1,0.1,0.1v0.4c0,0.1-0.1,0.1-0.1,0.1h-2.4c-0.1,0-0.1,0-0.1,0.1v4c0,0.1,0,0.1,0.1,0.1h2.8 c0.1,0,0.1,0.1,0.1,0.1v0.4c0,0.1-0.1,0.1-0.1,0.1h-3.5c-0.1,0-0.1-0.1-0.1-0.1V328.5z"></path><path d="M328.1,328.5c0-0.1,0.1-0.1,0.1-0.1h1.8c1.2,0,1.9,0.5,2.2,1.5c0.2,0.6,0.2,1.2,0.2,3.7c0,2.4-0.1,3.1-0.2,3.7 c-0.3,1-1,1.5-2.2,1.5h-1.8c-0.1,0-0.1-0.1-0.1-0.1V328.5z M329,338h1c0.9,0,1.3-0.3,1.6-1.1c0.1-0.5,0.2-1.1,0.2-3.4 s-0.1-2.9-0.2-3.4c-0.2-0.7-0.7-1.1-1.6-1.1h-1c-0.1,0-0.1,0-0.1,0.1L329,338C328.9,338,328.9,338,329,338z"></path><path d="M338,338.8c-0.1,0-0.1,0-0.2-0.1l-1.3-4.6c-0.2,0-0.4,0-0.6,0h-0.7c-0.1,0-0.1,0-0.1,0.1v4.4c0,0.1-0.1,0.1-0.1,0.1h-0.5 c-0.1,0-0.1-0.1-0.1-0.1v-10.1c0-0.1,0.1-0.1,0.1-0.1h1.5c1.8,0,2.6,0.8,2.6,2.9c0,1.5-0.5,2.3-1.3,2.6l1.4,4.8 c0,0.1,0,0.1-0.1,0.1L338,338.8L338,338.8z M337.7,331.2c0-1.6-0.5-2.1-1.8-2.1h-0.8c-0.1,0-0.1,0-0.1,0.1v4.1 c0,0.1,0,0.1,0.1,0.1h0.8C337.2,333.4,337.7,332.9,337.7,331.2z"></path><path d="M340.2,328.5c0-0.1,0.1-0.1,0.1-0.1h0.5c0.1,0,0.1,0.1,0.1,0.1v10.1c0,0.1-0.1,0.1-0.1,0.1h-0.5c-0.1,0-0.1-0.1-0.1-0.1 V328.5z"></path><path d="M342.4,338.1l0.4-0.3c0.1-0.1,0.1,0,0.2,0c0.2,0.2,0.5,0.3,0.8,0.3c0.8,0,1.2-0.4,1.2-1.5v-8.1c0-0.1,0.1-0.1,0.1-0.1 h0.5c0.1,0,0.1,0.1,0.1,0.1v8.1c0,1.6-0.8,2.3-2,2.3c-0.6,0-1.1-0.2-1.4-0.5C342.3,338.3,342.4,338.2,342.4,338.1z"></path><path d="M349.3,338.8c-0.1,0-0.1-0.1-0.1-0.1l-2-10.1c0-0.1,0-0.1,0.1-0.1h0.5c0.1,0,0.1,0.1,0.2,0.1l1.6,8.4h0l1.6-8.4 c0-0.1,0.1-0.1,0.1-0.1h0.5c0.1,0,0.1,0.1,0.1,0.1l-2,10.1c0,0.1-0.1,0.1-0.1,0.1H349.3z"></path><path d="M353.2,328.5c0-0.1,0.1-0.1,0.1-0.1h3.5c0.1,0,0.1,0.1,0.1,0.1v0.4c0,0.1-0.1,0.1-0.1,0.1h-2.8c-0.1,0-0.1,0-0.1,0.1v3.8 c0,0.1,0,0.1,0.1,0.1h2.4c0.1,0,0.1,0.1,0.1,0.1v0.4c0,0.1-0.1,0.1-0.1,0.1h-2.4c-0.1,0-0.1,0-0.1,0.1v4c0,0.1,0,0.1,0.1,0.1h2.8 c0.1,0,0.1,0.1,0.1,0.1v0.4c0,0.1-0.1,0.1-0.1,0.1h-3.5c-0.1,0-0.1-0.1-0.1-0.1V328.5z"></path><path d="M358.4,328.5c0-0.1,0.1-0.1,0.1-0.1h0.6c0.1,0,0.2,0,0.2,0.1l2.8,8.5h0v-8.5c0-0.1,0.1-0.1,0.1-0.1h0.4 c0.1,0,0.1,0.1,0.1,0.1v10.1c0,0.1-0.1,0.1-0.1,0.1h-0.6c-0.1,0-0.2,0-0.2-0.1l-2.9-8.5h0v8.5c0,0.1-0.1,0.1-0.1,0.1h-0.4 c-0.1,0-0.1-0.1-0.1-0.1V328.5z"></path></g></g></g><g transform="matrix(1, 0, 0, 1, -191.320804, -208.419345)"><path d="M366.9,337.5c0-0.1,0-0.2,0.1-0.3l2.6-4.6c0.3-0.5,0.4-0.9,0.4-1.7c0-0.4,0-0.5-0.1-0.7c-0.1-0.3-0.3-0.5-0.7-0.5 s-0.6,0.2-0.7,0.5c0,0.2-0.1,0.3-0.1,0.9c0,0.1-0.1,0.2-0.2,0.2l-1.2-0.1c-0.1,0-0.1-0.1-0.1-0.2c0-0.6,0-1,0.1-1.3 c0.3-0.9,1-1.5,2.2-1.5s1.9,0.5,2.2,1.4c0.1,0.3,0.1,0.7,0.1,1.2c0,1.1-0.2,1.7-0.6,2.5l-2.3,4v0h2.8c0.1,0,0.2,0.1,0.2,0.2v1.1 c0,0.1-0.1,0.2-0.2,0.2H367c-0.1,0-0.2-0.1-0.2-0.2V337.5z"></path><path d="M372.9,333.6c0-3.2,0.1-3.6,0.2-3.9c0.3-0.9,1.1-1.4,2.2-1.4c1.1,0,1.9,0.5,2.2,1.4c0.1,0.4,0.2,0.7,0.2,3.9 c0,3.2,0,3.6-0.2,3.9c-0.3,0.9-1.1,1.4-2.2,1.4c-1.1,0-1.9-0.5-2.2-1.4C372.9,337.1,372.9,336.8,372.9,333.6z M375.2,337.5 c0.4,0,0.6-0.2,0.7-0.5c0.1-0.2,0.1-0.4,0.1-3.4c0-3,0-3.2-0.1-3.4c-0.1-0.3-0.3-0.5-0.7-0.5s-0.6,0.2-0.7,0.5 c-0.1,0.2-0.1,0.4-0.1,3.4c0,3,0,3.2,0.1,3.4C374.6,337.3,374.8,337.5,375.2,337.5z"></path><path d="M379,337.5c0-0.1,0-0.2,0.1-0.3l2.6-4.6c0.3-0.5,0.4-0.9,0.4-1.7c0-0.4,0-0.5-0.1-0.7c-0.1-0.3-0.3-0.5-0.7-0.5 s-0.6,0.2-0.7,0.5c0,0.2-0.1,0.3-0.1,0.9c0,0.1-0.1,0.2-0.2,0.2l-1.2-0.1c-0.1,0-0.1-0.1-0.1-0.2c0-0.6,0-1,0.1-1.3 c0.3-0.9,1-1.5,2.2-1.5c1.1,0,1.9,0.5,2.2,1.4c0.1,0.3,0.1,0.7,0.1,1.2c0,1.1-0.2,1.7-0.6,2.5l-2.3,4v0h2.8c0.1,0,0.2,0.1,0.2,0.2 v1.1c0,0.1-0.1,0.2-0.2,0.2h-4.3c-0.1,0-0.2-0.1-0.2-0.2V337.5z"></path><path d="M385.1,337.5c0-0.1,0-0.2,0.1-0.3l2.6-4.6c0.3-0.5,0.4-0.9,0.4-1.7c0-0.4,0-0.5-0.1-0.7c-0.1-0.3-0.3-0.5-0.7-0.5 s-0.6,0.2-0.7,0.5c0,0.2-0.1,0.3-0.1,0.9c0,0.1-0.1,0.2-0.2,0.2l-1.2-0.1c-0.1,0-0.1-0.1-0.1-0.2c0-0.6,0-1,0.1-1.3 c0.3-0.9,1-1.5,2.2-1.5c1.1,0,1.9,0.5,2.2,1.4c0.1,0.3,0.1,0.7,0.1,1.2c0,1.1-0.2,1.7-0.6,2.5l-2.3,4v0h2.8c0.1,0,0.2,0.1,0.2,0.2 v1.1c0,0.1-0.1,0.2-0.2,0.2h-4.3c-0.1,0-0.2-0.1-0.2-0.2V337.5z"></path></g></svg> 