<?xml version="1.0" encoding="UTF-8"?> <svg xmlns="http://www.w3.org/2000/svg" viewBox="0 0 496 133.1"><defs><style>.cls-1{fill:#fbbf1b;}.cls-2{fill:#5a5a5a;}.cls-3{fill:#5b5b5b;}.cls-4,.cls-5{fill:#fff;}.cls-5{font-size:29.79px;font-family:SourceSansPro-Regular, Source Sans Pro;}.cls-6{letter-spacing:-0.01em;}.cls-7{letter-spacing:-0.01em;}.cls-8{letter-spacing:-0.01em;}.cls-9{letter-spacing:-0.02em;}.cls-10{letter-spacing:-0.01em;}.cls-11{letter-spacing:0em;}.cls-12{letter-spacing:0em;}.cls-13{letter-spacing:0em;}</style></defs><title>light</title><g id="Layer_2" data-name="Layer 2"><g id="Layer_1-2" data-name="Layer 1"><ellipse class="cls-1" cx="456.52" cy="65.08" rx="3.73" ry="3.72"></ellipse><path class="cls-2" d="M257.42,50.24q0-8.48,4.3-14a13.8,13.8,0,0,1,11.47-5.53,21.92,21.92,0,0,1,12,3.08v8.94h-5v-5a15.82,15.82,0,0,0-6.46-1.35,8.71,8.71,0,0,0-7.6,3.9,17.22,17.22,0,0,0-2.7,10,17.17,17.17,0,0,0,2.7,10,8.7,8.7,0,0,0,7.6,3.91,16.68,16.68,0,0,0,5-.72,14.71,14.71,0,0,0,3.05-1.2c.52-.32,1.33-.88,2.42-1.69l2.62,4.21a17.54,17.54,0,0,1-13,5c-5.27,0-9.35-1.84-12.21-5.52S257.42,55.9,257.42,50.24Z"></path><path class="cls-2" d="M301.34,63.84h7.46v5H290.16v-5h6.21V16.66h-6.21v-5h11.18V34.29q7.62-4.45,13.84-4.46t8.62,3.86q2.4,3.86,2.4,10.65v19.5h6.21V67a11.55,11.55,0,0,1-6.36,1.76q-3.62,0-4.84-1.26A5.7,5.7,0,0,1,320,63.45V44.53a15.63,15.63,0,0,0-1.12-6.68q-1.11-2.25-5.12-2.25t-12.41,4.58Z"></path><path class="cls-2" d="M336.14,35.28v-5h12.43V63.84h6.21v5H336.14v-5h6.22V35.28Zm8.73-11A3.32,3.32,0,0,1,342.23,23a4.67,4.67,0,0,1,.11-6,3.53,3.53,0,0,1,2.75-1.3A3.32,3.32,0,0,1,347.73,17a4.46,4.46,0,0,1,1,2.94,4.41,4.41,0,0,1-1.13,3A3.53,3.53,0,0,1,344.87,24.23Z"></path><path class="cls-2" d="M390.82,47.44v4H365a15.73,15.73,0,0,0,3.15,9,9.07,9.07,0,0,0,7.48,3.49,20.48,20.48,0,0,0,5.53-.68A16,16,0,0,0,384.52,62c.63-.38,1.51-.94,2.64-1.69l2.71,4.2a20,20,0,0,1-13.93,5q-8.34,0-12.78-5.52t-4.44-14q0-8.49,4.44-14a14.66,14.66,0,0,1,12.09-5.52c5.1,0,9,1.57,11.61,4.73S390.82,42.43,390.82,47.44Zm-8.68-9.51a7.82,7.82,0,0,0-6.38-2.71A9,9,0,0,0,369,38a14,14,0,0,0-3.52,7.24h19.35A13.1,13.1,0,0,0,382.14,37.93Z"></path><path class="cls-2" d="M414.9,12.14a48.56,48.56,0,0,1,7,.61V22.87h-5v-5L415,17.81c-3.22,0-5.36.8-6.44,2.42S407,24.48,407,28.16v3.4h11.18v5H407V65.08h6.21V68.8H394.55V65.08h6.21V36.52h-6.21V32.2l6.21-.75V28.16q0-7.93,3.13-12T414.9,12.14Z"></path><path class="cls-2" d="M421.89,57.63h6.21v4.55a18,18,0,0,0,6.67,1.09,11.44,11.44,0,0,0,6-1.27,3.66,3.66,0,0,0,2.05-3.14,3.74,3.74,0,0,0-1.55-3.08,69.82,69.82,0,0,0-7.35-4.3,42.18,42.18,0,0,1-8.1-5.24,7.26,7.26,0,0,1-2.3-5.61,8.07,8.07,0,0,1,3.49-7q3.5-2.5,9.54-2.5a23.43,23.43,0,0,1,11.46,3v8.6h-6.22V37.89a17.46,17.46,0,0,0-6.73-1.3q-3.57,0-5.08,1.33a3.89,3.89,0,0,0-1.51,2.93,3.08,3.08,0,0,0,1.15,2.53,41,41,0,0,0,7,4.12,51.17,51.17,0,0,1,8.79,5.72,7.21,7.21,0,0,1,2.38,5.57A8.42,8.42,0,0,1,443.94,66q-3.82,2.72-10.63,2.71a21.88,21.88,0,0,1-11.42-2.75Z"></path><ellipse class="cls-1" cx="455.45" cy="65.08" rx="3.73" ry="3.72"></ellipse><path class="cls-2" d="M35.79,50.27q0-8.49,4.29-14a13.82,13.82,0,0,1,11.47-5.53,21.94,21.94,0,0,1,12,3.08v8.94h-5v-5a15.86,15.86,0,0,0-6.47-1.35,8.71,8.71,0,0,0-7.6,3.9,17.23,17.23,0,0,0-2.7,10,17.22,17.22,0,0,0,2.7,10,8.71,8.71,0,0,0,7.6,3.9,16.59,16.59,0,0,0,5-.71,15.86,15.86,0,0,0,3.06-1.2c.52-.33,1.32-.89,2.41-1.69l2.63,4.2a17.54,17.54,0,0,1-13,5q-7.92,0-12.22-5.52T35.79,50.27Z"></path><path class="cls-2" d="M73.57,63.72q-4.62-5.52-4.62-14t4.62-14q4.62-5.52,13-5.52t13,5.52q4.62,5.52,4.62,14t-4.62,14q-4.61,5.52-13,5.52T73.57,63.72Zm4.62-23.91a16.14,16.14,0,0,0-3,10.09,16.14,16.14,0,0,0,3,10.09,9.89,9.89,0,0,0,8.35,3.94A9.92,9.92,0,0,0,94.9,60a16.2,16.2,0,0,0,3-10.09,16.2,16.2,0,0,0-3-10.09,9.92,9.92,0,0,0-8.36-3.94A9.89,9.89,0,0,0,78.19,39.81Z"></path><path class="cls-2" d="M140.61,11.72V63.86h6.21V67a11.46,11.46,0,0,1-6.25,1.73q-3.49,0-4.8-1a4.34,4.34,0,0,1-1.38-3.5,14.4,14.4,0,0,1-11.23,4.9,12.22,12.22,0,0,1-10.65-5.47q-3.8-5.47-3.79-14t4.46-14.15q4.47-5.59,12.73-5.59a25.25,25.25,0,0,1,8.48,1.59V16.68h-6.21v-5ZM115.34,49.63a19.61,19.61,0,0,0,2.42,10.28,7.53,7.53,0,0,0,6.78,4,8.58,8.58,0,0,0,7.1-3.56,13.59,13.59,0,0,0,2.75-8.57V38.29A15.59,15.59,0,0,0,126,35.87a9.45,9.45,0,0,0-7.58,3.75Q115.33,43.37,115.34,49.63Z"></path><path class="cls-2" d="M150.55,35.31v-5H163V63.86h6.21v5H150.55v-5h6.21V35.31Zm8.55-11.12A3.29,3.29,0,0,1,156.46,23a4.57,4.57,0,0,1,.11-5.91,3.52,3.52,0,0,1,2.75-1.29A3.28,3.28,0,0,1,162,17a4.34,4.34,0,0,1,1,2.92,4.39,4.39,0,0,1-1.14,3A3.51,3.51,0,0,1,159.1,24.19Z"></path><path class="cls-2" d="M184.1,63.86h6.22v5H171.68v-5h6.21V35.31h-6.21v-5H182l.87,4.19q2.46-1.5,4-2.33a25,25,0,0,1,4.38-1.74,18.13,18.13,0,0,1,5.54-.91q6.22,0,8.57,4t2.35,11.14V65.1h7.46v3.28a11.38,11.38,0,0,1-6.36,1.8q-3.62,0-4.84-1.29a5.92,5.92,0,0,1-1.23-4.18V44.08a16.38,16.38,0,0,0-1.11-6.84q-1.11-2.31-5.13-2.31t-12.4,4.69Z"></path><path class="cls-2" d="M248.15,66.87a9.9,9.9,0,0,1,3.09,7.71q0,4.9-5,8.41T231.86,86.5q-6.71,0-10.43-3.28a11,11,0,0,1-3.73-8.64q0-5.35,5.44-8.52Q218,64.44,218,60t4.62-6A13.08,13.08,0,0,1,218.45,44a13.75,13.75,0,0,1,3.91-10.14q3.91-3.93,11-3.94a17.47,17.47,0,0,1,7.83,1.7H253.7v6.21h-6.78a13.69,13.69,0,0,1,1.51,6.42,13.08,13.08,0,0,1-3.79,9.63q-3.78,3.81-10.64,3.81h-7.06c-1.74,0-2.61.7-2.61,2.08,0,1.13.87,1.83,2.61,2.09l12.37,1.54Q245.05,64.05,248.15,66.87Zm-22,3.43a6.4,6.4,0,0,0-1.72,4.29,4.87,4.87,0,0,0,2.05,3.94,8.82,8.82,0,0,0,5.64,1.63,20.09,20.09,0,0,0,9.35-1.85Q245,76.45,245,73.72q0-4.26-5.5-4.93l-9-1.07A8.05,8.05,0,0,0,226.19,70.3Zm7.44-34.43a8.32,8.32,0,0,0-6.2,2.27,7.85,7.85,0,0,0-2.23,5.73,7.71,7.71,0,0,0,2.23,5.69,9.69,9.69,0,0,0,12.39,0,7.72,7.72,0,0,0,2.24-5.69,7.86,7.86,0,0,0-2.24-5.73A8.3,8.3,0,0,0,233.63,35.87Z"></path><rect class="cls-3" width="5" height="120" transform="translate(5 120) rotate(180)"></rect><rect class="cls-3" x="12.5" y="102.5" width="5" height="30" transform="translate(132.5 102.5) rotate(90)"></rect><rect class="cls-3" x="12.5" y="-12.5" width="5" height="30" transform="translate(17.5 -12.5) rotate(90)"></rect><rect class="cls-3" x="491" width="5" height="120"></rect><rect class="cls-3" x="478.5" y="-12.5" width="5" height="30" transform="translate(478.5 483.5) rotate(-90)"></rect><rect class="cls-3" x="478.5" y="102.5" width="5" height="30" transform="translate(363.5 598.5) rotate(-90)"></rect><path class="cls-4" d="M257.42,50.24q0-8.48,4.3-14a13.8,13.8,0,0,1,11.47-5.53,21.92,21.92,0,0,1,12,3.08v8.94h-5v-5a15.82,15.82,0,0,0-6.46-1.35,8.71,8.71,0,0,0-7.6,3.9,17.22,17.22,0,0,0-2.7,10,17.17,17.17,0,0,0,2.7,10,8.7,8.7,0,0,0,7.6,3.91,16.68,16.68,0,0,0,5-.72,14.71,14.71,0,0,0,3.05-1.2c.52-.32,1.33-.88,2.42-1.69l2.62,4.21a17.54,17.54,0,0,1-13,5c-5.27,0-9.35-1.84-12.21-5.52S257.42,55.9,257.42,50.24Z"></path><path class="cls-4" d="M301.34,63.84h7.46v5H290.16v-5h6.21V16.66h-6.21v-5h11.18V34.29q7.62-4.45,13.84-4.46t8.62,3.86q2.4,3.86,2.4,10.65v19.5h6.21V67a11.55,11.55,0,0,1-6.36,1.76q-3.62,0-4.84-1.26A5.7,5.7,0,0,1,320,63.45V44.53a15.63,15.63,0,0,0-1.12-6.68q-1.11-2.25-5.12-2.25t-12.41,4.58Z"></path><path class="cls-4" d="M336.14,35.28v-5h12.43V63.84h6.21v5H336.14v-5h6.22V35.28Zm8.73-11A3.32,3.32,0,0,1,342.23,23a4.67,4.67,0,0,1,.11-6,3.53,3.53,0,0,1,2.75-1.3A3.32,3.32,0,0,1,347.73,17a4.46,4.46,0,0,1,1,2.94,4.41,4.41,0,0,1-1.13,3A3.53,3.53,0,0,1,344.87,24.23Z"></path><path class="cls-4" d="M390.82,47.44v4H365a15.73,15.73,0,0,0,3.15,9,9.07,9.07,0,0,0,7.48,3.49,20.48,20.48,0,0,0,5.53-.68A16,16,0,0,0,384.52,62c.63-.38,1.51-.94,2.64-1.69l2.71,4.2a20,20,0,0,1-13.93,5q-8.34,0-12.78-5.52t-4.44-14q0-8.49,4.44-14a14.66,14.66,0,0,1,12.09-5.52c5.1,0,9,1.57,11.61,4.73S390.82,42.43,390.82,47.44Zm-8.68-9.51a7.82,7.82,0,0,0-6.38-2.71A9,9,0,0,0,369,38a14,14,0,0,0-3.52,7.24h19.35A13.1,13.1,0,0,0,382.14,37.93Z"></path><path class="cls-4" d="M414.9,12.14a48.56,48.56,0,0,1,7,.61V22.87h-5v-5L415,17.81c-3.22,0-5.36.8-6.44,2.42S407,24.48,407,28.16v3.4h11.18v5H407V65.08h6.21V68.8H394.55V65.08h6.21V36.52h-6.21V32.2l6.21-.75V28.16q0-7.93,3.13-12T414.9,12.14Z"></path><path class="cls-4" d="M421.89,57.63h6.21v4.55a18,18,0,0,0,6.67,1.09,11.44,11.44,0,0,0,6-1.27,3.66,3.66,0,0,0,2.05-3.14,3.74,3.74,0,0,0-1.55-3.08,69.82,69.82,0,0,0-7.35-4.3,42.18,42.18,0,0,1-8.1-5.24,7.26,7.26,0,0,1-2.3-5.61,8.07,8.07,0,0,1,3.49-7q3.5-2.5,9.54-2.5a23.43,23.43,0,0,1,11.46,3v8.6h-6.22V37.89a17.46,17.46,0,0,0-6.73-1.3q-3.57,0-5.08,1.33a3.89,3.89,0,0,0-1.51,2.93,3.08,3.08,0,0,0,1.15,2.53,41,41,0,0,0,7,4.12,51.17,51.17,0,0,1,8.79,5.72,7.21,7.21,0,0,1,2.38,5.57A8.42,8.42,0,0,1,443.94,66q-3.82,2.72-10.63,2.71a21.88,21.88,0,0,1-11.42-2.75Z"></path><path class="cls-4" d="M35.79,50.27q0-8.49,4.29-14a13.82,13.82,0,0,1,11.47-5.53,21.94,21.94,0,0,1,12,3.08v8.94h-5v-5a15.86,15.86,0,0,0-6.47-1.35,8.71,8.71,0,0,0-7.6,3.9,17.23,17.23,0,0,0-2.7,10,17.22,17.22,0,0,0,2.7,10,8.71,8.71,0,0,0,7.6,3.9,16.59,16.59,0,0,0,5-.71,15.86,15.86,0,0,0,3.06-1.2c.52-.33,1.32-.89,2.41-1.69l2.63,4.2a17.54,17.54,0,0,1-13,5q-7.92,0-12.22-5.52T35.79,50.27Z"></path><path class="cls-4" d="M73.57,63.72q-4.62-5.52-4.62-14t4.62-14q4.62-5.52,13-5.52t13,5.52q4.62,5.52,4.62,14t-4.62,14q-4.61,5.52-13,5.52T73.57,63.72Zm4.62-23.91a16.14,16.14,0,0,0-3,10.09,16.14,16.14,0,0,0,3,10.09,9.89,9.89,0,0,0,8.35,3.94A9.92,9.92,0,0,0,94.9,60a16.2,16.2,0,0,0,3-10.09,16.2,16.2,0,0,0-3-10.09,9.92,9.92,0,0,0-8.36-3.94A9.89,9.89,0,0,0,78.19,39.81Z"></path><path class="cls-4" d="M140.61,11.72V63.86h6.21V67a11.46,11.46,0,0,1-6.25,1.73q-3.49,0-4.8-1a4.34,4.34,0,0,1-1.38-3.5,14.4,14.4,0,0,1-11.23,4.9,12.22,12.22,0,0,1-10.65-5.47q-3.8-5.47-3.79-14t4.46-14.15q4.47-5.59,12.73-5.59a25.25,25.25,0,0,1,8.48,1.59V16.68h-6.21v-5ZM115.34,49.63a19.61,19.61,0,0,0,2.42,10.28,7.53,7.53,0,0,0,6.78,4,8.58,8.58,0,0,0,7.1-3.56,13.59,13.59,0,0,0,2.75-8.57V38.29A15.59,15.59,0,0,0,126,35.87a9.45,9.45,0,0,0-7.58,3.75Q115.33,43.37,115.34,49.63Z"></path><path class="cls-4" d="M150.55,35.31v-5H163V63.86h6.21v5H150.55v-5h6.21V35.31Zm8.55-11.12A3.29,3.29,0,0,1,156.46,23a4.57,4.57,0,0,1,.11-5.91,3.52,3.52,0,0,1,2.75-1.29A3.28,3.28,0,0,1,162,17a4.34,4.34,0,0,1,1,2.92,4.39,4.39,0,0,1-1.14,3A3.51,3.51,0,0,1,159.1,24.19Z"></path><path class="cls-4" d="M184.1,63.86h6.22v5H171.68v-5h6.21V35.31h-6.21v-5H182l.87,4.19q2.46-1.5,4-2.33a25,25,0,0,1,4.38-1.74,18.13,18.13,0,0,1,5.54-.91q6.22,0,8.57,4t2.35,11.14V65.1h7.46v3.28a11.38,11.38,0,0,1-6.36,1.8q-3.62,0-4.84-1.29a5.92,5.92,0,0,1-1.23-4.18V44.08a16.38,16.38,0,0,0-1.11-6.84q-1.11-2.31-5.13-2.31t-12.4,4.69Z"></path><path class="cls-4" d="M248.15,66.87a9.9,9.9,0,0,1,3.09,7.71q0,4.9-5,8.41T231.86,86.5q-6.71,0-10.43-3.28a11,11,0,0,1-3.73-8.64q0-5.35,5.44-8.52Q218,64.44,218,60t4.62-6A13.08,13.08,0,0,1,218.45,44a13.75,13.75,0,0,1,3.91-10.14q3.91-3.93,11-3.94a17.47,17.47,0,0,1,7.83,1.7H253.7v6.21h-6.78a13.69,13.69,0,0,1,1.51,6.42,13.08,13.08,0,0,1-3.79,9.63q-3.78,3.81-10.64,3.81h-7.06c-1.74,0-2.61.7-2.61,2.08,0,1.13.87,1.83,2.61,2.09l12.37,1.54Q245.05,64.05,248.15,66.87Zm-22,3.43a6.4,6.4,0,0,0-1.72,4.29,4.87,4.87,0,0,0,2.05,3.94,8.82,8.82,0,0,0,5.64,1.63,20.09,20.09,0,0,0,9.35-1.85Q245,76.45,245,73.72q0-4.26-5.5-4.93l-9-1.07A8.05,8.05,0,0,0,226.19,70.3Zm7.44-34.43a8.32,8.32,0,0,0-6.2,2.27,7.85,7.85,0,0,0-2.23,5.73,7.71,7.71,0,0,0,2.23,5.69,9.69,9.69,0,0,0,12.39,0,7.72,7.72,0,0,0,2.24-5.69,7.86,7.86,0,0,0-2.24-5.73A8.3,8.3,0,0,0,233.63,35.87Z"></path><rect class="cls-4" width="5" height="120" transform="translate(5 120) rotate(180)"></rect><rect class="cls-4" x="12.5" y="102.5" width="5" height="30" transform="translate(132.5 102.5) rotate(90)"></rect><rect class="cls-4" x="12.5" y="-12.5" width="5" height="30" transform="translate(17.5 -12.5) rotate(90)"></rect><rect class="cls-4" x="491" width="5" height="120"></rect><rect class="cls-4" x="478.5" y="-12.5" width="5" height="30" transform="translate(478.5 483.5) rotate(-90)"></rect><rect class="cls-4" x="478.5" y="102.5" width="5" height="30" transform="translate(363.5 598.5) rotate(-90)"></rect><text class="cls-5" transform="translate(61.29 124.4)">Dedi<tspan class="cls-6" x="56.95" y="0">c</tspan><tspan class="cls-7" x="70.23" y="0">at</tspan><tspan x="94.48" y="0">ed </tspan><tspan class="cls-8" x="131.74" y="0">R</tspan><tspan x="148.39" y="0">em</tspan><tspan class="cls-9" x="187.85" y="0">o</tspan><tspan class="cls-10" x="203.49" y="0">t</tspan><tspan class="cls-11" x="213.14" y="0">e D</tspan><tspan class="cls-12" x="252.19" y="0">e</tspan><tspan class="cls-13" x="267.11" y="0">v</tspan><tspan class="cls-11" x="280.9" y="0">elope</tspan><tspan class="cls-13" x="350.72" y="0">r</tspan><tspan x="360.93" y="0">s</tspan></text></g></g></svg> 